<svg xmlns="http://www.w3.org/2000/svg" viewBox="0 0 224.43 139.42"><defs><style>.cls-1{fill:#e8e8e8;}.cls-1,.cls-2,.cls-3,.cls-4,.cls-5,.cls-6,.cls-7,.cls-8,.cls-9{stroke:#282828;stroke-width:0.5px;}.cls-1,.cls-2,.cls-3,.cls-4,.cls-5,.cls-6,.cls-7,.cls-9{stroke-miterlimit:10;}.cls-2{fill:#c1e5c2;}.cls-3{fill:#828282;}.cls-4{fill:#c9c9c9;}.cls-5{fill:#fff;}.cls-6{fill:#d39959;}.cls-8{fill:#f4f4f4;stroke-linecap:round;stroke-linejoin:round;}.cls-9{fill:#d8efd9;}</style></defs><g id="Layer_2" data-name="Layer 2"><g id="Layer_2-2" data-name="Layer 2"><rect class="cls-1" x="0.25" y="124.16" width="153.56" height="6.12" rx="2.15"/><path class="cls-1" d="M141.58,124.81H1.37c-.05,0-.07-.09,0-.13L36.76,89.2H177c.05,0,.07.09,0,.13L141.61,124.8Z"/><path class="cls-1" d="M42.78.25H170.95a6.11,6.11,0,0,1,6.11,6.11v82.5a.33.33,0,0,1-.33.33H37a.33.33,0,0,1-.33-.33V6.36A6.11,6.11,0,0,1,42.78.25Z"/><rect class="cls-2" x="40.21" y="6.63" width="133.3" height="76.24" rx="3.7"/><polygon class="cls-3" points="177.06 89.54 177.06 95.66 141.49 131.28 141.49 125.16 177.06 89.54"/><path class="cls-4" d="M124.18,110.57H32.24l-8.66,0c-.76,0-1.08-1.36-.47-2l15-15.7a.67.67,0,0,1,.48-.22h109.8c.88,0,1.15,1.66.35,2.18l-24.19,15.68A.66.66,0,0,1,124.18,110.57Z"/><path class="cls-5" d="M211.32,93.89l-.35.85a60.9,60.9,0,0,0,.52-8.1c0-6.45-20.43-11.67-45.63-11.67s-45.64,5.22-45.64,11.67c0,0-5.48,53.9,45.64,52.51,15,0,25.07-5.39,31.83-12.7h0s24.77-3.91,26.36-17.36S211.32,93.89,211.32,93.89Zm6.9,15.49c-.88,5.51-8.8,8.87-15.73,10.78a60.6,60.6,0,0,0,7.81-21C214.29,100.43,219.18,103.3,218.22,109.38Z"/><ellipse class="cls-6" cx="165.69" cy="87.31" rx="41.91" ry="10.05"/><path class="cls-5" d="M163.63,92.16c16.43-7,11.13-12.06,3.06-9.35-.59.2-1.37.76-1.73.06-.94-1.82-15.55-3.85-6.53,9.3C159.19,93.29,161.25,93.17,163.63,92.16Z"/><ellipse class="cls-7" cx="152.83" cy="108.3" rx="1.68" ry="2.56"/><ellipse class="cls-7" cx="170.28" cy="108.3" rx="1.68" ry="2.56"/><path class="cls-7" d="M156.78,115h9.55s.53,5.48-4.77,5.66S156.78,115,156.78,115Z"/><path class="cls-8" d="M159.42,72a16,16,0,0,0,2.91-1.5c4.19-2.74,14.67-10.62,6.73-16.66-9.76-7.42-2.92-17.29-2.92-17.29l.68-1.14s-12,11.57-2.2,19-5.2,17.6-5.2,17.6Z"/><path class="cls-8" d="M172.7,72a16,16,0,0,0,2.91-1.5c4.19-2.74,14.67-10.62,6.73-16.66-9.76-7.42-2.91-17.29-2.91-17.29l.68-1.14s-12,11.57-2.21,19S172.7,72,172.7,72Z"/><path class="cls-8" d="M146.14,72a16,16,0,0,0,2.91-1.5c4.19-2.74,14.67-10.62,6.73-16.66-9.76-7.42-2.92-17.29-2.92-17.29l.68-1.14s-12,11.57-2.2,19-5.2,17.6-5.2,17.6Z"/><path class="cls-4" d="M71.17,114.17l-5.59,6.08c-.33.37-.13,1.07.31,1.07h49.24a1.78,1.78,0,0,0,1.42-.76l4.78-6.24c.31-.4.09-1.09-.36-1.09H73.16A2.74,2.74,0,0,0,71.17,114.17Z"/><ellipse class="cls-9" cx="96.91" cy="41.62" rx="1.31" ry="2.21"/><ellipse class="cls-9" cx="110.53" cy="41.62" rx="1.31" ry="2.21"/><path class="cls-9" d="M100,47.4h7.45s.42,4.72-3.73,4.87S100,47.4,100,47.4Z"/></g></g></svg>