<svg xmlns="http://www.w3.org/2000/svg" viewBox="0 0 256 256"><defs><style>.cls-1{fill:#e4f2e5;}.cls-2{fill:#319f3d;}.cls-3{fill:#1a1a1a;}</style></defs><g id="Layer_2" data-name="Layer 2"><g id="Layer_1-2" data-name="Layer 1"><circle class="cls-1" cx="128" cy="128" r="118.58"/><path class="cls-2" d="M128,256A128,128,0,1,1,256,128,128.14,128.14,0,0,1,128,256Zm0-237.16A109.16,109.16,0,1,0,237.16,128,109.28,109.28,0,0,0,128,18.84Z"/><path class="cls-2" d="M173.79,145l-17.11-7.88,8.56,3.94-8.6-3.85c.29-.66,6.84-16.28-5.53-34-12.61-18.08-29.76-17-29.91-17l-1.47-18.78c1.14-.06,28.13-1.87,46.84,25S174.27,144,173.79,145Z"/><path class="cls-2" d="M205.24,153.17l-17.11-7.87,8.56,3.93-8.58-3.88c.52-1.19,12.65-29.39-9.58-61.28S125.61,53.81,124.34,53.9l-1.41-18.79c1.72-.11,42.46-2.83,71.06,38.18S206,151.61,205.24,153.17Z"/><path class="cls-3" d="M147,127.15a37.92,37.92,0,0,1-2.24,12.92,30.56,30.56,0,0,1-6.88,11,33.25,33.25,0,0,1-11.78,7.62,45.78,45.78,0,0,1-16.93,2.83H83.45V198H61.74V94.33h46.58a55.55,55.55,0,0,1,17.22,2.39,33,33,0,0,1,12.07,6.74,26.7,26.7,0,0,1,7.1,10.37A36.82,36.82,0,0,1,147,127.15Zm-21.86.37q0-8-4.82-12.18t-14.46-4.16H83.45v33.64h23a24.93,24.93,0,0,0,8.35-1.25,15.85,15.85,0,0,0,5.82-3.54,14.07,14.07,0,0,0,3.42-5.48A21.33,21.33,0,0,0,125.17,127.52Z"/></g></g></svg>