<?xml version="1.0" encoding="UTF-8" standalone="no"?>
<!DOCTYPE svg PUBLIC "-//W3C//DTD SVG 1.1//EN" "http://www.w3.org/Graphics/SVG/1.1/DTD/svg11.dtd">
<svg width="100%" height="100%" viewBox="0 0 421 421" version="1.1" xmlns="http://www.w3.org/2000/svg" xmlns:xlink="http://www.w3.org/1999/xlink" xml:space="preserve" xmlns:serif="http://www.serif.com/" style="fill-rule:evenodd;clip-rule:evenodd;stroke-linejoin:round;stroke-miterlimit:2;">
    <g transform="matrix(2.54086e-05,-1,1,2.54086e-05,-1653.56,845.954)">
        <circle cx="635.599" cy="1863.95" r="210.402" style="fill:url(#_Linear1);"/>
        <path d="M635.599,1653.54C751.723,1653.54 846.001,1747.82 846.001,1863.95C846.001,1980.07 751.723,2074.35 635.599,2074.35C519.475,2074.35 425.197,1980.07 425.197,1863.95C425.197,1747.82 519.475,1653.54 635.599,1653.54ZM635.599,1673.54C530.513,1673.54 445.197,1758.86 445.197,1863.95C445.197,1969.03 530.513,2054.35 635.599,2054.35C740.685,2054.35 826.001,1969.03 826.001,1863.95C826.001,1758.86 740.685,1673.54 635.599,1673.54Z"/>
    </g>
    <g transform="matrix(0.857217,0,0,0.857217,-1504.27,-352.377)">
        <path d="M1847.03,846.312C1846.71,777.019 1846.24,643.775 1847.24,620.173C1849.61,564.567 1876.19,527.977 1911.33,501.568C1925.61,490.834 1939.88,486.012 1957.95,481.041C1976.63,475.904 2023.19,475.347 2040.42,480.055C2096.41,495.359 2134.72,530.552 2150.77,581.432C2152.93,588.301 2154.49,592.099 2155.51,600C2156.14,604.837 2156.69,611.949 2156.69,620.079C2156.69,629.194 2156.29,634.117 2155.51,638.976C2154.47,645.53 2152.77,651 2150.77,657.36C2139.85,691.973 2117.7,719.298 2089.49,732.983C2070.29,742.294 2057.55,745.366 2038.14,745.366C1990.5,745.366 1951.63,717.403 1940.51,675.128C1931.36,640.316 1947.35,602.721 1977.59,587.978C1997.24,578.395 2024.41,581.712 2040.63,596.227C2060.78,614.252 2062.76,640.798 2045.26,658.132C2036.4,666.908 2027.76,670.137 2016.12,669.03C2006.46,668.111 2005.5,669.468 2012.4,674.234C2019.72,679.278 2028,681.518 2039.35,681.518C2058.94,681.518 2074.66,668.814 2085.79,648.939C2095.28,631.984 2090.15,599.009 2084.5,587.654C2073.88,566.285 2051.94,548.943 2027.58,542.659C2011.27,538.453 1986.11,539.164 1969.81,544.292C1925.9,558.103 1910.53,597.518 1907.9,648.215C1907.74,651.278 1907.62,658.897 1907.62,659.65C1907.63,659.747 1907.62,659.646 1907.69,661.935L1907.69,882.637C1885.65,873.48 1865.25,861.186 1847.03,846.312Z" style="fill:rgb(0,169,87);"/>
    </g>
    <g transform="matrix(1,0,0,1,-425.197,-1653.54)">
        <path d="M635.599,1653.54C751.723,1653.54 846.001,1747.82 846.001,1863.95C846.001,1980.07 751.723,2074.35 635.599,2074.35C519.475,2074.35 425.197,1980.07 425.197,1863.95C425.197,1747.82 519.475,1653.54 635.599,1653.54ZM635.599,1673.54C530.513,1673.54 445.197,1758.86 445.197,1863.95C445.197,1969.03 530.513,2054.35 635.599,2054.35C740.685,2054.35 826.001,1969.03 826.001,1863.95C826.001,1758.86 740.685,1673.54 635.599,1673.54Z"/>
    </g>
    <defs>
        <linearGradient id="_Linear1" x1="0" y1="0" x2="1" y2="0" gradientUnits="userSpaceOnUse" gradientTransform="matrix(420.804,0,0,420.804,425.197,1863.95)"><stop offset="0" style="stop-color:rgb(208,255,232);stop-opacity:1"/><stop offset="1" style="stop-color:rgb(242,255,245);stop-opacity:1"/></linearGradient>
    </defs>
</svg>

