<svg xmlns="http://www.w3.org/2000/svg" viewBox="0 0 162.48 120.89"><defs><style>.cls-1{fill:#e5e5e5;}.cls-1,.cls-2,.cls-3,.cls-4,.cls-5,.cls-6,.cls-7{stroke:#282828;stroke-miterlimit:10;stroke-width:0.5px;}.cls-2{fill:#c9c9c9;}.cls-3{fill:#d8efd9;}.cls-4{fill:none;}.cls-5{fill:gray;}.cls-6{fill:#c1e5c2;}</style></defs><g id="Layer_2" data-name="Layer 2"><g id="Layer_2-2" data-name="Layer 2"><polygon class="cls-1" points="52.67 61.8 1.6 109.08 52.98 109.08 108.22 57.41 58.67 56.28 52.67 61.8"/><path class="cls-2" d="M64.91,53.39h0a7.56,7.56,0,0,0-5.31,2L52.67,61.8h50.26l11.49-8.41Z"/><polygon class="cls-2" points="38.54 74.87 38.54 74.87 22.82 89.41 73.34 89.41 88.79 74.87 45.92 74.87 38.54 74.87"/><path class="cls-2" d="M.25,113h0c0,4.23,4.27,7.65,9.54,7.65H56c5.27,0,9.54-3.42,9.54-7.65h0c0-4.22-4.27-7.65-9.54-7.65H9.79C4.52,105.34.25,108.77.25,113Z"/><rect class="cls-3" x="66.45" y="31.72" width="5.66" height="31.76" rx="2.03"/><rect class="cls-1" x="72.11" y="35.65" width="24.5" height="24.5"/><rect class="cls-3" x="93.78" y="31.72" width="5.66" height="31.76" rx="2.03"/><rect class="cls-1" x="72.11" y="35.65" width="3.44" height="24.5"/><rect class="cls-1" x="75.55" y="35.65" width="3.44" height="24.5"/><rect class="cls-1" x="78.99" y="35.65" width="3.44" height="24.5"/><rect class="cls-1" x="82.64" y="35.65" width="3.44" height="24.5"/><rect class="cls-1" x="86.08" y="35.65" width="3.44" height="24.5"/><path class="cls-4" d="M75.55,60.15s0,9.73-3.44,8.5-4.19,8.13-4.19,8.13"/><path class="cls-5" d="M51.56,112.89h0a7.78,7.78,0,0,0,13,5.71l56.74-51.67a7.69,7.69,0,0,0,2.52-5.7v-.52a7.78,7.78,0,0,0-13-5.68L54.06,107.22A7.71,7.71,0,0,0,51.56,112.89Z"/><circle class="cls-2" cx="59.24" cy="112.99" r="6.29"/><circle class="cls-2" cx="89.23" cy="85.33" r="6.29"/><circle class="cls-2" cx="116.07" cy="60.64" r="6.4"/><rect class="cls-6" x="94.06" y="10.27" width="48.09" height="11.49" transform="translate(-0.6 26.68) rotate(-12.86)"/><rect class="cls-6" x="99.53" y="47.51" width="86.12" height="11.49" transform="translate(195.84 -89.33) rotate(90)"/><circle class="cls-2" cx="142.59" cy="10.38" r="6.81"/><path class="cls-5" d="M101.17,16.3h0a.43.43,0,0,0,0-.07.56.56,0,0,0,0-.08h0A34.35,34.35,0,0,0,55.85,4.35l0-.08L38.94,14.88a2.69,2.69,0,1,0,2.87,4.56L58.25,9.09a3,3,0,0,1,.89-.37C71.87,5.92,84.58,10,90.93,20.07c.37.6.71,1.21,1,1.82h0L92,22a.3.3,0,0,0,0,.08h0l0,.07,9.14-5.69A.75.75,0,0,0,101.17,16.3Z"/><rect class="cls-3" x="19.98" y="13.1" width="5.66" height="31.76" rx="2.03"/><rect class="cls-1" x="25.65" y="17.04" width="24.5" height="24.5"/><rect class="cls-3" x="47.31" y="13.1" width="5.66" height="31.76" rx="2.03"/><rect class="cls-1" x="25.65" y="17.04" width="3.44" height="24.5"/><rect class="cls-1" x="29.09" y="17.04" width="3.44" height="24.5"/><rect class="cls-1" x="32.53" y="17.04" width="3.44" height="24.5"/><rect class="cls-1" x="36.17" y="17.04" width="3.44" height="24.5"/><rect class="cls-1" x="39.62" y="17.04" width="3.44" height="24.5"/><path class="cls-4" d="M29.09,41.54s0,9.72-3.44,8.49-4.19,8.13-4.19,8.13"/><path class="cls-5" d="M103,23.64,92.46,21.2c-.09.65-.2,1.31-.34,2-2.65,11.62-13.3,19.68-26.24,21.25a2.71,2.71,0,0,1-.94-.05L46,40.06a2.69,2.69,0,1,0-1.19,5.25l19.43,4.42,0-.09A34.33,34.33,0,0,0,103,23.64Z"/><circle class="cls-2" cx="98.06" cy="20.6" r="6.81"/><path class="cls-2" d="M133.33,92.76h.76A3.75,3.75,0,0,0,133.33,92.76Z"/><path class="cls-2" d="M151.08,92.76h.77A3.87,3.87,0,0,0,151.08,92.76Z"/><path class="cls-2" d="M151.85,92.76H133.33c-2.52.23-10.38,3-10.38,27.88h39.28C162.23,95.72,154.36,93,151.85,92.76Z"/><ellipse class="cls-7" cx="133.86" cy="100.43" rx="1.68" ry="2.56"/><ellipse class="cls-7" cx="151.31" cy="100.43" rx="1.68" ry="2.56"/><path class="cls-7" d="M137.81,107.15h9.55s.53,5.48-4.77,5.66S137.81,107.15,137.81,107.15Z"/></g></g></svg>